<?xml version="1.0" encoding="iso-8859-1"?>
                <!DOCTYPE svg PUBLIC "-//W3C//DTD SVG 1.1//EN" "http://www.w3.org/Graphics/SVG/1.1/DTD/svg11.dtd">
                <svg xmlns="http://www.w3.org/2000/svg" xmlns:xlink="http://www.w3.org/1999/xlink" version="1.1" id="Capa_1" x="0px" y="0px" viewBox="0 0 262.213 262.213" style="enable-background:new 0 0 262.213 262.213;" xml:space="preserve">
                <g>
                  <path d="M257.223,147.649H4.99c-2.755,0-4.99,2.234-4.99,4.99c0,36.217,29.466,65.682,65.684,65.682h130.843   c36.219,0,65.686-29.465,65.686-65.682C262.213,149.883,259.978,147.649,257.223,147.649z M196.527,208.341H65.684   c-29.033,0-52.935-22.328-55.469-50.712h241.783C249.464,186.013,225.56,208.341,196.527,208.341z" fill="#FFFFFF"/>
                  <path d="M4.99,72.363h177.192l17.745,16.55c0.924,0.862,2.14,1.341,3.403,1.341c0.011,0,0.022,0,0.034,0l53.893-0.368   c1.323-0.009,2.588-0.544,3.517-1.486c0.93-0.942,1.447-2.215,1.438-3.538l-0.246-36.014c-0.009-1.324-0.543-2.589-1.486-3.519   c-0.934-0.922-2.193-1.437-3.504-1.437c-0.011,0-0.023,0-0.034,0l-53.366,0.366c-1.436-0.145-2.886,0.341-3.952,1.363   l-17.483,16.762H4.99c-2.755,0-4.99,2.234-4.99,4.99C0,70.129,2.235,72.363,4.99,72.363z M205.068,54.228l46.953-0.322   l0.177,26.034l-46.917,0.321l-13.872-12.938L205.068,54.228z" fill="#FFFFFF"/>
                  <path d="M257.223,107.67H80.03l-17.746-16.55c-0.924-0.862-2.14-1.341-3.403-1.341c-0.011,0-0.022,0-0.034,0L4.956,90.147   C2.2,90.165-0.018,92.415,0,95.17l0.242,36.019c0.009,1.324,0.543,2.59,1.486,3.519c0.934,0.921,2.193,1.438,3.504,1.438   c0.011,0,0.023,0,0.035,0l53.35-0.37c1.449,0.153,2.899-0.335,3.971-1.361l17.484-16.763h177.152c2.755,0,4.99-2.234,4.99-4.99   S259.978,107.67,257.223,107.67z M57.145,125.805l-46.956,0.326l-0.175-26.038l46.916-0.32l13.873,12.938L57.145,125.805z" fill="#FFFFFF"/>
                </g>
                </svg>
