<?xml version="1.0" encoding="iso-8859-1"?>
                <!DOCTYPE svg PUBLIC "-//W3C//DTD SVG 1.1//EN" "http://www.w3.org/Graphics/SVG/1.1/DTD/svg11.dtd">
                <svg xmlns="http://www.w3.org/2000/svg" xmlns:xlink="http://www.w3.org/1999/xlink" version="1.1" id="Capa_1" x="0px" y="0px" viewBox="0 0 481.131 481.131" style="enable-background:new 0 0 481.131 481.131;" xml:space="preserve">
                <g>
                	<path d="M279.302,98.492c27.153,0,49.244-22.092,49.244-49.247C328.547,22.091,306.456,0,279.302,0   c-27.154,0-49.246,22.091-49.246,49.245C230.056,76.4,252.148,98.492,279.302,98.492z M279.302,8.5   c22.467,0,40.744,18.278,40.744,40.745c0,22.468-18.277,40.747-40.744,40.747c-22.468,0-40.746-18.279-40.746-40.747   C238.556,26.778,256.835,8.5,279.302,8.5z" fill="#FFFFFF"/>
                	<path d="M444.967,472.65l-102.969-9.762l-9.682-5.879c2.01-0.124,4.023-0.44,6.017-0.954c8.182-2.11,15.052-7.279,19.345-14.555   c4.293-7.276,5.495-15.789,3.385-23.97l-33.035-128.109c1.577,0.599,3.292,0.938,5.105,0.938h64c7.857,0,14.25-6.393,14.25-14.25   v-184c0-7.857-6.393-14.25-14.25-14.25h-64c-7.86,0-14.018,6.259-14.018,14.25v29.435c-8.694-12.745-23.295-21.126-39.814-21.126   c-26.74,0-48.494,21.755-48.494,48.495v13.064l-16.018,17.086l-31.415-29.323c-4.025-3.807-9.292-5.903-14.829-5.903   c-5.912,0-11.632,2.464-15.692,6.759c-2.83,2.993-4.686,6.65-5.469,10.593l-2.12-8.682c-0.329-1.348-1.296-2.451-2.59-2.953   l-104.57-40.635c-2.189-0.852-4.65,0.234-5.501,2.422c-0.85,2.188,0.234,4.651,2.423,5.501l102.506,39.832l16.447,67.341   l-50.892,72.422c-0.821,1.169-1,2.674-0.476,4.003l64.569,163.646c0.446,1.132,1.357,2.019,2.502,2.435   c1.144,0.415,2.411,0.321,3.481-0.261l83.349-45.33l81.906,49.73c0.549,0.333,1.166,0.538,1.805,0.598l103.939,9.854   c0.137,0.013,0.272,0.02,0.406,0.02c2.166,0,4.018-1.649,4.227-3.849C449.018,474.945,447.304,472.872,444.967,472.65z    M350.358,437.182c-3.14,5.32-8.163,9.101-14.147,10.644c-5.981,1.543-12.206,0.664-17.528-2.475   c-5.321-3.139-9.101-8.163-10.644-14.146l-27.431-106.359c18.015-0.484,33.338-10.919,41.064-26.028l31.16,120.836   C354.376,425.636,353.497,431.861,350.358,437.182z M402.883,234.86h-75.268V117.548l75.268,37.607V234.86z M397.133,281.86h-64   c-3.197,0-5.518-2.302-5.518-5.474V243.36h75.268v32.75C402.883,279.28,400.304,281.86,397.133,281.86z M333.133,86.36h64   c3.171,0,5.75,2.58,5.75,5.75v53.544l-75.268-37.608V92.11C327.616,88.886,330.04,86.36,333.133,86.36z M239.308,148.913   c0-22.053,17.941-39.995,39.994-39.995c21.903,0,39.769,18.332,39.769,40.332c0,0.298-0.058-0.281,0,0l0.045,127.136   c0,22.052-17.859,39.992-39.811,39.992c-5.341,0-10.531-1.042-15.355-3.053l6.833-2.077c16.596-5.045,25.996-22.651,20.954-39.247   c-4.058-13.349-16.149-22.318-30.089-22.318c-3.093,0-6.175,0.46-9.159,1.367l-13.181,4.006v-38.967l51.25-54.706   c8.178-8.653,7.792-22.346-0.859-30.523c-4.025-3.806-9.293-5.902-14.83-5.902c-5.913,0-11.633,2.464-15.705,6.772l-19.855,21.18   V148.913z M187.188,332.214l23.795,78.295c1.783,5.868,1.176,12.078-1.711,17.487c-1.202,2.253-2.757,4.236-4.566,5.934   l-26.521-83.681c-0.709-2.236-3.092-3.475-5.336-2.767c-2.237,0.709-3.477,3.098-2.768,5.336l27.183,85.771   c-0.518,0.199-1.035,0.399-1.571,0.562c-2.181,0.663-4.429,0.999-6.682,0.999c-0.001,0-0.001,0-0.001,0   c-10.174-0.001-18.997-6.546-21.957-16.288l-31.696-104.285c-0.011-0.035-0.021-0.069-0.032-0.103   c-0.888-2.947-1.175-5.979-0.855-9.014c0.968-9.171,7.279-16.835,16.089-19.545c0.028-0.008,0.057-0.016,0.085-0.024   l104.317-31.707c2.182-0.664,4.432-1,6.687-1c10.171,0,18.994,6.546,21.956,16.289c3.68,12.112-3.182,24.962-15.294,28.644   l-78.292,23.797C187.773,327.595,186.506,329.969,187.188,332.214z M159.03,156.436c2.499-2.643,5.879-4.099,9.517-4.099   c3.356,0,6.549,1.271,9.009,3.598l34.535,32.236c1.714,1.599,4.397,1.51,6.001-0.2l47.262-50.415   c2.498-2.643,5.877-4.098,9.516-4.098c3.357,0,6.55,1.271,8.991,3.579c5.246,4.958,5.48,13.261,0.508,18.521l-58.954,62.93   c-2.506,2.649-5.892,4.108-9.536,4.108h-0.001c-3.327,0-6.497-1.251-8.932-3.529l-47.395-44.125   c-2.541-2.402-3.995-5.65-4.093-9.146C155.359,162.301,156.628,158.977,159.03,156.436z M162.044,227.324   c0.704-1.003,0.942-2.261,0.651-3.452l-10.979-44.951c0.623,0.774,1.282,1.525,2.018,2.22l47.411,44.141   c4.008,3.749,9.239,5.814,14.73,5.814h0.002c5.543,0,10.918-2.165,14.931-5.985v32.528l-82.555,25.092   c-0.029,0.008-0.059,0.017-0.088,0.026c-12.126,3.684-20.819,14.208-22.148,26.81c-0.442,4.193-0.041,8.379,1.172,12.367   c0.015,0.052,0.033,0.111,0.053,0.171l23.285,76.612l-39.167-99.267L162.044,227.324z M166.506,439.212   c5.503,5.648,13.061,9.09,21.34,9.39l-14.52,7.896L166.506,439.212z M254.6,412.296l-38.542,20.962   c0.245-0.414,0.484-0.832,0.712-1.259c3.956-7.412,4.789-15.921,2.346-23.961l-22.56-74.229l55.96-17.009   c5.826,3.874,12.327,6.407,19.17,7.484l28.122,109.042c0.447,1.734,1.04,3.405,1.753,5.01l-42.725-25.94   C257.542,411.611,255.928,411.574,254.6,412.296z" fill="#FFFFFF"/>
                	<path d="M351.631,223.36h27c7.857,0,14.25-6.393,14.25-14.25v-25c0-7.857-6.393-14.25-14.25-14.25h-27   c-7.857,0-14.25,6.393-14.25,14.25v25C337.381,216.967,343.773,223.36,351.631,223.36z M345.881,184.11   c0-3.17,2.579-5.75,5.75-5.75h27c3.171,0,5.75,2.58,5.75,5.75v25c0,3.17-2.579,5.75-5.75,5.75h-27c-3.171,0-5.75-2.58-5.75-5.75   V184.11z" fill="#FFFFFF"/>
                	<path d="M107.887,192.541c0-2.347-1.902-4.25-4.25-4.25H36.566c-2.348,0-4.25,1.903-4.25,4.25s1.902,4.25,4.25,4.25h67.071   C105.985,196.791,107.887,194.888,107.887,192.541z" fill="#FFFFFF"/>
                	<path d="M105.136,395.28H58.639c-2.348,0-4.25,1.903-4.25,4.25c0,2.347,1.902,4.25,4.25,4.25h46.497c2.348,0,4.25-1.903,4.25-4.25   C109.386,397.183,107.484,395.28,105.136,395.28z" fill="#FFFFFF"/>
                	<path d="M67.888,222.54c0,2.347,1.902,4.25,4.25,4.25h55.497c2.348,0,4.25-1.903,4.25-4.25s-1.902-4.25-4.25-4.25H72.138   C69.791,218.29,67.888,220.193,67.888,222.54z" fill="#FFFFFF"/>
                </g>
                </svg>
