<?xml version="1.0" encoding="iso-8859-1"?>
<svg class="c-hobby__icon js-svg--mountain-bike" xmlns="http://www.w3.org/2000/svg" xmlns:xlink="http://www.w3.org/1999/xlink" version="1.1" width="100%" height="100%" id="Capa_1" x="0px" y="0px" viewBox="0 0 300.605 300.605" style="enable-background:new 0 0 300.605 300.605;" xml:space="preserve">
<g>
  <path d="M246.192,184.786c-0.705,0-1.411-0.193-2.042-0.594l-9.237-5.881   c-0.765-0.49-1.329-1.233-1.596-2.101L202.695,75.509c-0.297-0.98-0.186-2.042,0.304-2.94c0.497-0.898,1.329-1.559,2.317-1.827   l15.103-4.188c2.057-0.572,4.128,0.624,4.678,2.643c0.564,2.027-0.624,4.121-2.643,4.678l-11.346,3.148l29.077,95.63l8.049,5.123   c1.775,1.129,2.294,3.475,1.166,5.25C248.672,184.163,247.447,184.786,246.192,184.786z" fill="#FFFFFF"/>
  <path d="M53.878,184.341c-1.552,0-2.963-0.95-3.534-2.406c-0.601-1.53-0.156-3.267,1.106-4.322   l65.045-54.123c0.386-0.327,0.846-0.564,1.337-0.713l94.539-28.431c2.005-0.609,4.128,0.527,4.73,2.547   c0.609,2.005-0.535,4.128-2.547,4.73l-93.796,28.209l-55.593,46.259l55.222-3.119c2.332-0.097,3.898,1.492,4.01,3.579   c0.119,2.094-1.485,3.891-3.579,4.01l-66.724,3.772C54.019,184.341,53.945,184.341,53.878,184.341z" fill="#FFFFFF"/>
  <path d="M150.674,171.361c-1.017,0-2.027-0.401-2.777-1.203c-1.433-1.537-1.351-3.943,0.178-5.376   l64.882-60.664c1.544-1.433,3.943-1.359,5.376,0.178c1.433,1.537,1.351,3.943-0.178,5.376l-64.882,60.664   C152.537,171.02,151.602,171.361,150.674,171.361z" fill="#FFFFFF"/>
  <path d="M130.848,167.404c-1.574,0-3.044-0.98-3.594-2.554l-19.618-56.469   c-0.683-1.983,0.364-4.151,2.346-4.841c1.997-0.668,4.143,0.356,4.841,2.346l19.618,56.469c0.683,1.983-0.364,4.151-2.346,4.841   C131.68,167.337,131.264,167.404,130.848,167.404z" fill="#FFFFFF"/>
  <path d="M137.249,194.016c-9.727,0-17.642-7.915-17.642-17.65c0-9.735,7.915-17.65,17.642-17.65   s17.642,7.915,17.642,17.65C154.891,186.101,146.976,194.016,137.249,194.016z M137.249,166.32   c-5.532,0-10.039,4.507-10.039,10.046c0,5.539,4.507,10.046,10.039,10.046s10.039-4.507,10.039-10.046   C147.288,170.827,142.781,166.32,137.249,166.32z" fill="#FFFFFF"/>
  <path d="M53.7,234.016c-29.612,0-53.7-24.095-53.7-53.714c0-29.612,24.088-53.7,53.7-53.7   c29.619,0,53.714,24.088,53.714,53.7C107.414,209.921,83.319,234.016,53.7,234.016z M53.7,134.205   c-25.417,0-46.096,20.679-46.096,46.096c0,25.424,20.679,46.111,46.096,46.111c25.424,0,46.111-20.687,46.111-46.111   C99.811,154.885,79.124,134.205,53.7,134.205z" fill="#FFFFFF"/>
  <path d="M246.89,234.194c-29.612,0-53.7-24.095-53.7-53.714c0-29.612,24.088-53.7,53.7-53.7   c29.619,0,53.714,24.088,53.714,53.7C300.605,210.099,276.51,234.194,246.89,234.194z M246.89,134.384   c-25.417,0-46.096,20.679-46.096,46.096c0,25.424,20.679,46.111,46.096,46.111c25.424,0,46.111-20.687,46.111-46.111   C293.001,155.063,272.314,134.384,246.89,134.384z" fill="#FFFFFF"/>
  <path d="M163.208,201.79c-0.832,0-1.663-0.267-2.369-0.824l-25.974-20.657   c-1.641-1.307-1.916-3.698-0.609-5.346c1.314-1.648,3.698-1.908,5.346-0.609l25.974,20.657c1.641,1.307,1.916,3.698,0.609,5.346   C165.435,201.3,164.321,201.79,163.208,201.79z" fill="#FFFFFF"/>
  <path d="M168.94,202.288h-13.9c-2.101,0-3.802-1.7-3.802-3.802s1.7-3.802,3.802-3.802h13.9   c2.101,0,3.802,1.7,3.802,3.802S171.041,202.288,168.94,202.288z" fill="#FFFFFF"/>
  <path d="M58.036,180.309c0,2.384-1.946,4.329-4.336,4.329c-2.391,0-4.322-1.946-4.322-4.329   c0-2.391,1.931-4.329,4.322-4.329C56.09,175.98,58.036,177.918,58.036,180.309z" fill="#FFFFFF"/>
  <path d="M251.227,180.48c0,2.391-1.946,4.336-4.336,4.336c-2.391,0-4.322-1.945-4.322-4.336   c0-2.391,1.931-4.322,4.322-4.322C249.281,176.158,251.227,178.089,251.227,180.48z" fill="#FFFFFF"/>
  <path d="M100.761,113.392c-3.133,0-6.868-1.106-12.029-3.898l1.789-3.356l-2.22,3.156   c-2.265-1.069-6.49-3.044-6.2-6.995c0.275-3.802,4.396-5.049,5.755-5.458c1.834-0.564,3.646-0.475,5.376-0.416   c1.916,0.089,3.854,0.156,6.423-0.438c2.651-0.616,7.032-1.901,11.324-3.156c6.705-1.968,10.923-3.185,12.838-3.408   c2.161-0.193,5.413,0.364,7.804,2.294c1.723,1.396,2.755,3.26,2.963,5.391c0.208,2.049-1.262,3.891-3.304,4.151   c-0.067,0.007-6.393,0.824-11.316,3.015c-1.76,0.78-4.997,2.799-7.603,4.418c-1.916,1.195-3.638,2.257-4.663,2.799   C105.483,112.65,103.323,113.392,100.761,113.392z M94.873,104.081c5.606,2.606,7.403,1.663,9.289,0.676   c0.921-0.49,2.458-1.448,4.18-2.517c0.713-0.446,1.448-0.906,2.183-1.359c-3.557,1.04-6.943,2.005-9.163,2.517   C98.808,103.984,96.714,104.081,94.873,104.081z" fill="#FFFFFF"/>
  <path d="M215.125,124.471c-1.559,0-3.015-0.965-3.579-2.51c-0.713-1.975,0.312-4.158,2.287-4.871l8.405-3.03   c1.99-0.683,4.151,0.319,4.871,2.287c0.713,1.975-0.312,4.158-2.287,4.871l-8.405,3.03   C215.986,124.397,215.556,124.471,215.125,124.471z" fill="#FFFFFF"/>
</g>
</svg>
