<?xml version="1.0" encoding="iso-8859-1"?>
                <!DOCTYPE svg PUBLIC "-//W3C//DTD SVG 1.1//EN" "http://www.w3.org/Graphics/SVG/1.1/DTD/svg11.dtd">
                <svg xmlns="http://www.w3.org/2000/svg" xmlns:xlink="http://www.w3.org/1999/xlink" version="1.1" id="Capa_1"  width="100%" height="100%" x="0px" y="0px" viewBox="0 0 470 470" style="enable-background:new 0 0 470 470;" xml:space="preserve">
                <g>
                  <path d="M324.662,39.587C324.662,17.759,306.903,0,285.075,0s-39.587,17.759-39.587,39.587c0,3.683,0.835,16.654,2.099,36.287   c2.454,38.126,6.201,96.343,7.717,145.393c-3.663,0.495-6.49,3.625-6.49,7.424c0,3.934,3.03,7.154,6.883,7.469   c0.178,8.188,0.279,16.016,0.279,23.302c0,12.613-0.297,25.437-0.789,38.12c-1.584,40.818-5.195,80.105-7.583,106.057   c-1.273,13.842-2.115,22.987-2.115,26.773c0,21.829,17.759,39.587,39.587,39.587s39.587-17.759,39.587-39.587   c0-3.786-0.841-12.931-2.115-26.773c-2.388-25.951-5.999-65.235-7.581-106.004c0.001-0.039-0.003-0.065-0.004-0.093   c-0.491-12.669-0.787-25.479-0.787-38.079c0-7.286,0.101-15.114,0.279-23.302c3.853-0.314,6.883-3.535,6.883-7.469   c0-3.799-2.827-6.93-6.491-7.424c1.516-49.05,5.263-107.267,7.717-145.393C323.827,56.241,324.662,43.271,324.662,39.587z    M285.075,15c13.558,0,24.587,11.03,24.587,24.587c0,3.201-0.913,17.376-2.068,35.324c-2.467,38.322-6.235,96.868-7.752,146.281   h-7.268v-22.5c0-4.142-3.358-7.5-7.5-7.5s-7.5,3.358-7.5,7.5v22.5h-7.268c-1.517-49.413-5.285-107.958-7.751-146.281   c-1.155-17.947-2.068-32.123-2.068-35.324C260.487,26.03,271.517,15,285.075,15z M299.689,290.124h-7.114v-31.431   c0-4.142-3.358-7.5-7.5-7.5s-7.5,3.358-7.5,7.5v31.431h-7.115c0.326-10.227,0.514-20.507,0.514-30.661   c0-7.287-0.1-15.103-0.275-23.271h14.366c0.019,0,14.385,0,14.385,0c-0.175,8.167-0.275,15.984-0.275,23.271   C299.175,269.617,299.363,279.897,299.689,290.124z M285.075,455c-13.558,0-24.587-11.03-24.587-24.587   c0-3.098,0.905-12.939,2.052-25.399c2.268-24.654,5.635-61.25,7.348-99.89h30.375c1.713,38.64,5.08,75.236,7.348,99.89   c1.146,12.459,2.052,22.301,2.052,25.399C309.662,443.97,298.632,455,285.075,455z" fill="#FFFFFF"/>
                  <path d="M403.064,96.515h-5.688V53.043c2.759-1.107,4.71-3.803,4.71-6.958c0-4.142-3.358-7.5-7.5-7.5h-32.971   c-4.142,0-7.5,3.358-7.5,7.5c0,3.155,1.951,5.85,4.71,6.958v43.472h-5.688c-4.142,0-7.5,3.358-7.5,7.5s3.358,7.5,7.5,7.5H370.6   v276.796h-8.985c-4.142,0-7.5,3.358-7.5,7.5s3.358,7.5,7.5,7.5h8.985v20.604c0,4.142,3.358,7.5,7.5,7.5s7.5-3.358,7.5-7.5v-20.604   h8.986c4.142,0,7.5-3.358,7.5-7.5s-3.358-7.5-7.5-7.5H385.6V111.515h17.464c4.142,0,7.5-3.358,7.5-7.5   S407.206,96.515,403.064,96.515z M373.825,53.585h8.551v42.93h-8.551V53.585z" fill="#FFFFFF"/>
                  <path d="M224.513,39.587C224.513,17.759,206.754,0,184.925,0s-39.587,17.759-39.587,39.587c0,3.683,0.835,16.654,2.099,36.287   c2.454,38.126,6.201,96.343,7.717,145.393c-3.664,0.494-6.491,3.625-6.491,7.424c0,3.934,3.03,7.154,6.883,7.469   c0.178,8.188,0.279,16.016,0.279,23.302c0,12.6-0.297,25.41-0.787,38.079c0,0.028-0.004,0.054-0.004,0.082   c-1.582,40.781-5.193,80.064-7.581,106.016c-1.273,13.842-2.115,22.987-2.115,26.773c0,21.829,17.759,39.587,39.587,39.587   s39.587-17.759,39.587-39.587c0-3.786-0.841-12.931-2.115-26.773c-2.387-25.952-5.999-65.239-7.581-106.01   c-0.493-12.73-0.791-25.554-0.791-38.167c0-7.286,0.101-15.114,0.279-23.302c3.852-0.315,6.883-3.535,6.883-7.469   c0-3.799-2.827-6.93-6.49-7.424c1.515-49.05,5.263-107.267,7.717-145.393C223.678,56.241,224.513,43.271,224.513,39.587z    M184.925,15c13.558,0,24.587,11.03,24.587,24.587c0,3.201-0.913,17.376-2.068,35.324c-2.467,38.322-6.234,96.868-7.751,146.281   h-7.268v-22.5c0-4.142-3.358-7.5-7.5-7.5s-7.5,3.358-7.5,7.5v22.5h-7.268c-1.517-49.413-5.285-107.958-7.752-146.281   c-1.155-17.947-2.068-32.123-2.068-35.324C160.338,26.03,171.368,15,184.925,15z M199.54,290.124h-7.115v-31.431   c0-4.142-3.358-7.5-7.5-7.5s-7.5,3.358-7.5,7.5v31.431h-7.114c0.326-10.227,0.514-20.507,0.514-30.661   c0-7.287-0.1-15.103-0.275-23.271h14.366c0.019,0,14.386,0,14.386,0c-0.175,8.167-0.275,15.984-0.275,23.271   C199.026,269.617,199.214,279.897,199.54,290.124z M184.925,455c-13.558,0-24.587-11.03-24.587-24.587   c0-3.098,0.905-12.939,2.052-25.399c2.268-24.654,5.635-61.25,7.348-99.89h30.375c1.713,38.64,5.08,75.236,7.348,99.89   c1.146,12.459,2.052,22.301,2.052,25.399C209.513,443.97,198.483,455,184.925,455z" fill="#FFFFFF"/>
                  <path d="M116.864,96.515h-5.688V53.043c2.759-1.108,4.71-3.803,4.71-6.958c0-4.142-3.358-7.5-7.5-7.5H75.414   c-4.142,0-7.5,3.358-7.5,7.5c0,3.155,1.951,5.851,4.71,6.958v43.472h-5.688c-4.142,0-7.5,3.358-7.5,7.5s3.358,7.5,7.5,7.5H84.4   v276.796h-8.986c-4.142,0-7.5,3.358-7.5,7.5s3.358,7.5,7.5,7.5H84.4v20.604c0,4.142,3.358,7.5,7.5,7.5s7.5-3.358,7.5-7.5v-20.604   h8.985c4.142,0,7.5-3.358,7.5-7.5s-3.358-7.5-7.5-7.5H99.4V111.515h17.464c4.142,0,7.5-3.358,7.5-7.5   S121.006,96.515,116.864,96.515z M87.625,53.585h8.551v42.93h-8.551V53.585z" fill="#FFFFFF"/>
                </g>
                </svg>
