<?xml version="1.0" encoding="iso-8859-1"?>
<svg class="c-hobby__icon c-hobby__icon--soccer js-svg--soccer" xmlns="http://www.w3.org/2000/svg" xmlns:xlink="http://www.w3.org/1999/xlink" version="1.1" id="Capa_1" x="0px" y="0px" viewBox="0 0 270 270" style="enable-background:new 0 0 270 270;" xml:space="preserve">
<path color-rendering="auto" image-rendering="auto" shape-rendering="auto" color-interpolation="sRGB" d="M135,0  C60.501,0,0,60.501,0,135s60.501,135,135,135s135-60.501,135-135S209.499,0,135,0L135,0z M135,10c7.977,0,15.776,0.755,23.336,2.18  l20.891,36.217l-22.113,38.301h-44.227L90.771,48.395l20.893-36.215C119.224,10.755,127.023,10,135,10L135,10z M171.793,15.496  c18.229,5.596,34.672,15.247,48.289,27.898l-32.195,0.002L171.793,15.496z M98.205,15.498L82.111,43.397l-32.189-0.004  C63.537,30.743,79.978,21.094,98.205,15.498z M40.279,53.391l41.834,0.006l22.113,38.301L82.113,130H37.887L16.959,93.76  C22.177,78.801,30.149,65.141,40.279,53.391L40.279,53.391z M229.725,53.393c10.128,11.749,18.099,25.408,23.316,40.365L232.113,130  h-44.227l-22.113-38.303l22.113-38.301L229.725,53.393L229.725,53.393z M112.887,96.697h44.227L179.227,135l-22.113,38.301h-44.227  L90.773,135C90.773,135,112.887,96.697,112.887,96.697z M256.881,107.108C258.921,116.075,260,125.41,260,135  c0,9.589-1.08,18.923-3.119,27.891L240.773,135L256.881,107.108z M13.121,107.11L29.227,135l-16.105,27.889  C11.082,153.922,10,144.589,10,135C10,125.411,11.082,116.077,13.121,107.11z M37.887,140h44.227l22.113,38.301l-22.113,38.303  L40.27,216.6c-10.125-11.748-18.095-25.404-23.311-40.359L37.887,140L37.887,140z M187.887,140h44.227l20.93,36.242  c-5.217,14.956-13.188,28.613-23.314,40.361l-41.844-0.004l-22.111-38.299L187.887,140L187.887,140z M112.887,183.301h44.227  l22.113,38.301l-20.893,36.221C150.775,259.247,142.977,260,135,260c-7.977,0-15.775-0.753-23.334-2.178l-20.895-36.219  L112.887,183.301L112.887,183.301z M187.889,226.6l32.199,0.002c-13.619,12.654-30.064,22.307-48.297,27.904L187.889,226.6  L187.889,226.6z M49.912,226.602l32.199,0.002l16.098,27.902C79.977,248.909,63.53,239.256,49.912,226.602z" fill="#FFFFFF"/>
</svg>
